<svg id="main" xmlns="http://www.w3.org/2000/svg" xmlns:xlink="http://www.w3.org/1999/xlink" viewBox="0 0 447.5 334.3"><defs><style>.cls-1{opacity:0.1;}.cls-1,.cls-10,.cls-2,.cls-5,.cls-9{isolation:isolate;}.cls-2{fill:#444;opacity:0.35;}.cls-3{fill:#f7f7f7;}.cls-4{fill:#9ecfef;}.cls-5,.cls-6{fill:#d2e9f7;}.cls-5{opacity:0.6;}.cls-7,.cls-9{fill:#fff;}.cls-8{fill:#5fb0e5;}.cls-10,.cls-9{opacity:0.75;}.cls-10{fill:#f2f2f2;}.cls-11{fill:#0686d8;}.cls-12{fill:#32373c;}.cls-13{fill:#127bb1;}.cls-14{fill:#445e79;}.cls-15{fill:#365666;}.cls-16{fill:#d4662c;}.cls-17{fill:none;stroke:#f9f9ea;stroke-miterlimit:10;stroke-width:2px;}.cls-18{fill:#f9f9ea;}</style><symbol id="Form_Illustration" data-name="Form Illustration" viewBox="0 0 447.5 310.9"><path class="cls-1" d="M442,0H5.5A5.55,5.55,0,0,0,0,5.5V305.4a5.55,5.55,0,0,0,5.5,5.5H442a5.55,5.55,0,0,0,5.5-5.5V5.5A5.48,5.48,0,0,0,442,0Z"/><path class="cls-2" d="M5.6,21.5H442.1V5.5H5.6Z"/><g id="form"><g id="_Group_" data-name="&lt;Group&gt;"><path id="_Path_" data-name="&lt;Path&gt;" class="cls-3" d="M5.6,305.2H442.1V21H5.6Z"/><path id="_Path_2" data-name="&lt;Path&gt;" class="cls-4" d="M48.4,301H305.8V68.9H48.4Z"/><path id="_Path_3" data-name="&lt;Path&gt;" class="cls-5" d="M331.3,166h97.3V67.4H331.3Z"/><path id="_Path_4" data-name="&lt;Path&gt;" class="cls-6" d="M331.3,186.1h97.3V171.4H331.3Z"/><path id="_Path_5" data-name="&lt;Path&gt;" class="cls-6" d="M331.3,205.3h97.3V190.6H331.3Z"/><path id="_Path_6" data-name="&lt;Path&gt;" class="cls-6" d="M331.3,224.3h97.3V209.6H331.3Z"/><path id="_Path_7" data-name="&lt;Path&gt;" class="cls-6" d="M331.3,82.2h97.3V67.5H331.3Z"/></g><path class="cls-7" d="M336.7,102.6h41.4V89.4H336.7Zm45.2,0h41.4V89.4H381.9Zm-45.2,17.5h41.4V106.9H336.7Zm45.2,0h41.4V106.9H381.9Zm-45.2,17.7h41.4V124.6H336.7Zm45.2,0h41.4V124.6H381.9Zm-45.2,17.5h41.4V142.1H336.7Zm45.2,0h41.4V142.1H381.9Z"/><path class="cls-8" d="M48.2,86.7H305.8v-19H48.2Z"/><path class="cls-9" d="M61.6,127.7H275.1V110.2H61.6Z"/><path class="cls-10" d="M61.6,290H275.1V143.1H61.6Z"/><path class="cls-11" d="M61.6,101.4H199v-3H61.6Zm234.2-24,1.6-1.7a.76.76,0,0,0,.2-.4c0-.2,0-.3-.2-.4l-.8-.8a.76.76,0,0,0-.4-.2c-.2,0-.3,0-.4.2l-1.6,1.7-1.6-1.7a.76.76,0,0,0-.4-.2c-.2,0-.3,0-.4.2l-.7.8a.76.76,0,0,0-.2.4c0,.2,0,.3.2.4l1.7,1.7-1.6,1.7a.76.76,0,0,0-.2.4c0,.2,0,.3.2.4l.7.8a.76.76,0,0,0,.4.2c.2,0,.3,0,.4-.2l1.6-1.7,1.6,1.7a.76.76,0,0,0,.4.2c.2,0,.3,0,.4-.2l.7-.8a.76.76,0,0,0,.2-.4c0-.2,0-.3-.2-.4Zm-8-2.1a.52.52,0,0,0-.4-.2h-6.9a.4.4,0,0,0-.4.2.52.52,0,0,0-.2.4.4.4,0,0,0,.2.4l3.4,3.8a.52.52,0,0,0,.4.2c.2,0,.3,0,.4-.2l3.4-3.8a.52.52,0,0,0,.2-.4C287.9,75.4,287.9,75.4,287.8,75.3Z"/><path class="cls-6" d="M48.2,63.3H428.1V37.7H48.2Z"/></g><g id="Layer_18" data-name="Layer 18"><path class="cls-12" d="M5.6,305.2H36.4V21H5.6Z"/><path class="cls-13" d="M5.6,98.6H36.4V86.8H5.6Z"/><path class="cls-3" d="M34,92.3l2.6-2.6,2.3,2.6L36.6,95Z"/></g><g id="Layer_15" data-name="Layer 15"><path class="cls-8" d="M130.7,165.6h68.6v-17H130.7Zm72,0h66.8v-17H202.7Z"/></g><g id="Layer_12" data-name="Layer 12"><path class="cls-9" d="M79.4,218.8h176V175.6H79.4Zm0,18.4h9.9v-9.9H79.4Zm0,16h9.9v-9.9H79.4Zm14.8-16H255.4v-9.9H94.2Zm0,16H255.4v-9.9H94.2Z"/></g><path id="Layer_14" data-name="Layer 14" class="cls-11" d="M418.3,76.2a.37.37,0,0,0,.3.1h5.2a.43.43,0,0,0,.3-.7l-2.5-2.5a.5.5,0,0,0-.6,0l-2.5,2.5"/><g id="Layer_13" data-name="Layer 13"><circle class="cls-7" cx="12.6" cy="14.5" r="2.2"/><circle class="cls-7" cx="20.4" cy="14.5" r="2.2"/><circle class="cls-7" cx="28.4" cy="14.5" r="2.2"/><path class="cls-7" d="M428.7,11.6h8.6V10.4h-8.6Zm0,2.9h8.6V13.3h-8.6Zm0,2.5h8.6V15.8h-8.6Z"/></g><path class="cls-14" d="M396.6,231.6"/><path class="cls-8" d="M383.8,242.8h44.3V230.1H383.8Z"/><path id="Layer_4" data-name="Layer 4" class="cls-8" d="M66,46.9l-3.6-2.1a1.72,1.72,0,0,0-1.7,0l-3.6,2.1a1.76,1.76,0,0,0-.8,1.5v4.2a2.24,2.24,0,0,0,.8,1.5l3.6,2.1a1.72,1.72,0,0,0,1.7,0L66,54.1a1.76,1.76,0,0,0,.8-1.5V48.4A1.56,1.56,0,0,0,66,46.9Zm-6.8,5.5a.6.6,0,1,1,.6-.6A.58.58,0,0,1,59.2,52.4Zm0-2.7a.6.6,0,1,1,.6-.6A.65.65,0,0,1,59.2,49.7Zm5.2,2.7H60.3V51.2h4.1Zm0-2.7H60.3V48.5h4.1Z"/></symbol></defs><title>gravity_forms_range_slider_in_editor</title><use width="447.5" height="310.9" transform="translate(0 0)" xlink:href="#Form_Illustration"/><path id="shadow" class="cls-1" d="M334.1,208.1h2.3V317.4h4.3V208.1h81.9V317.4h4.3V208.1h2.3a8,8,0,0,0,8-8V144.7a8,8,0,0,0-8-8h-2.3V119.6h1.9a8,8,0,0,0,8-8V56.2a8,8,0,0,0-8-8H334.6a8,8,0,0,0-8,8v55.4a8,8,0,0,0,8,8h1.9v17.1h-2.3a8,8,0,0,0-8,8v55.4a7.88,7.88,0,0,0,7.9,8Zm6.6-88.5h81.9v17.1H340.7Z" transform="translate(-6.1 -6.2)"/><g id="sign"><ellipse class="cls-1" cx="373.5" cy="329.1" rx="58.7" ry="5.2"/><path class="cls-15" d="M423.5,336.1h-1.7a1.32,1.32,0,0,1-1.3-1.3V64.5h4.3V334.7A1.29,1.29,0,0,1,423.5,336.1Zm-86.1,0h-1.7a1.32,1.32,0,0,1-1.3-1.3V64.5h4.3V334.7A1.35,1.35,0,0,1,337.4,336.1Z" transform="translate(-6.1 -6.2)"/><path class="cls-16" d="M426.7,117.6H332.5a8,8,0,0,1-8-8V54.2a8,8,0,0,1,8-8h94.2a8,8,0,0,1,8,8v55.4A8,8,0,0,1,426.7,117.6Z" transform="translate(-6.1 -6.2)"/><path class="cls-17" d="M327.7,108.7V55.1a5.7,5.7,0,0,1,5.7-5.7h92.3a5.7,5.7,0,0,1,5.7,5.7v53.5a5.7,5.7,0,0,1-5.7,5.7H333.4A5.49,5.49,0,0,1,327.7,108.7Z" transform="translate(-6.1 -6.2)"/><path class="cls-18" d="M390.9,91.9H344.7a2.86,2.86,0,0,1-2.8-2.8V74.7a2.86,2.86,0,0,1,2.8-2.8h46.2a2.86,2.86,0,0,1,2.8,2.8V89.2A2.71,2.71,0,0,1,390.9,91.9Z" transform="translate(-6.1 -6.2)"/><path class="cls-18" d="M387.5,62.5l31,17.9a1.7,1.7,0,0,1,0,3l-31,17.9a.74.74,0,0,1-1.1-.7V63.2A.74.74,0,0,1,387.5,62.5Z" transform="translate(-6.1 -6.2)"/><path class="cls-16" d="M427.1,206.1h-95a8,8,0,0,1-8-8V142.7a8,8,0,0,1,8-8h95a8,8,0,0,1,8,8v55.4A8,8,0,0,1,427.1,206.1Z" transform="translate(-6.1 -6.2)"/><path class="cls-17" d="M327.3,197.2V143.7A5.7,5.7,0,0,1,333,138h93.1a5.7,5.7,0,0,1,5.7,5.7v53.5a5.7,5.7,0,0,1-5.7,5.7H333A5.76,5.76,0,0,1,327.3,197.2Z" transform="translate(-6.1 -6.2)"/><path class="cls-18" d="M368.2,180.4h46.2a2.86,2.86,0,0,0,2.8-2.8V163.1a2.86,2.86,0,0,0-2.8-2.8H368.2a2.86,2.86,0,0,0-2.8,2.8v14.5A2.8,2.8,0,0,0,368.2,180.4Z" transform="translate(-6.1 -6.2)"/><path class="cls-18" d="M371.6,151l-31,17.9a1.7,1.7,0,0,0,0,3l31,17.9a.74.74,0,0,0,1.1-.7V151.6c.1-.5-.6-.9-1.1-.6Z" transform="translate(-6.1 -6.2)"/></g><image width="615" height="146" transform="translate(79.4 175.6) scale(0.29 0.28)" xlink:href="../Gravity Forms Range Slider Bars.png"/></svg>